<svg id="Capa_1" enable-background="new 0 0 512 512" height="512" viewBox="0 0 512 512" width="512" xmlns="http://www.w3.org/2000/svg"><path d="m399.223 427.346c-3.292-1.108-19.018-4.212-85.106-17.181-38.046-7.466-58.007-28.185-77.882-59.195-3.681-5.742-8.623-10.841-14.385-15.068v-124.565c45.449-14.784 78.396-57.561 78.396-107.9v-93.437c0-5.523-4.478-10-10-10h-206.745c-5.522 0-10 4.478-10 10v93.436c0 46.571 28.2 86.671 68.409 104.12v8.349c0 5.521 4.489 10 10 10 5.52 0 10-4.48 10-10v-.01-1.804c8.035 1.814 16.388 2.776 24.963 2.776 5.077 0 10.075-.341 14.977-.991v109.975c-6.279-1.958-12.853-3.025-19.407-3.025-7.637 0-14.412 1.482-20.532 3.965v-20.885c0-5.51-4.49-10-10-10-5.511 0-10 4.49-10 10v33.759c-6.083 5.375-11.511 11.425-16.687 17.201-3.547 3.958-7.213 8.05-10.935 11.773-2.404 2.406-4.864 4.783-7.243 7.083-16.492 15.94-33.546 32.422-33.546 61.102 0 20.237 8.287 39.951 22.736 54.088 14.202 13.896 32.843 21.313 52.417 20.882 13.329-.291 24.4-1.072 32.906-2.323 51.164-7.527 93.517-9.801 170.681-.288.283.035 25.295 2.816 39.067 2.816 2.426 0 4.505-.087 6.037-.29 24.231-3.208 41.155-20.643 41.155-42.4.001-18.263-14.315-33.558-39.276-41.963zm-305.722-323.91v-43.455h48.999c5.51 0 10-4.48 10-10 0-5.51-4.49-10-10-10h-48.999v-19.98h186.745v19.98h-47.746c-5.521 0-10 4.49-10 10 0 5.521 4.479 10 10 10h47.746v43.455c0 51.518-41.887 93.431-93.373 93.431-51.485.001-93.372-41.913-93.372-93.431zm301.218 388.447c-5.382.716-30.872-1.421-40.031-2.55-36.325-4.479-65.53-6.37-91.513-6.37-30.535 0-56.616 2.615-84.525 6.721-7.581 1.115-18.104 1.846-30.433 2.114-14.178.313-27.671-5.081-37.994-15.182-10.627-10.397-16.723-24.902-16.723-39.792 0-20.196 12.111-31.9 27.444-46.72 2.44-2.358 4.964-4.797 7.491-7.325 4.105-4.109 7.958-8.407 11.683-12.564 13.168-14.696 24.541-27.387 42.324-27.387 14.612 0 29.809 7.786 36.954 18.936 19.113 29.821 43.351 58.703 90.868 68.027 49.259 9.667 79.083 15.52 82.668 16.541 7.764 2.625 25.567 10.059 25.567 22.978.001 13.419-11.942 21.006-23.78 22.573z"/><path d="m216.854 146.893c0-16.538-13.449-29.991-29.98-29.991s-29.98 13.453-29.98 29.991 13.449 29.992 29.98 29.992 29.98-13.455 29.98-29.992zm-39.961 0c0-5.509 4.478-9.99 9.98-9.99s9.98 4.482 9.98 9.99-4.478 9.991-9.98 9.991-9.98-4.482-9.98-9.991z"/><path d="m187.5 59.981c5.51 0 10-4.48 10-10 0-5.51-4.49-10-10-10s-10 4.49-10 10c0 5.52 4.49 10 10 10z"/><path d="m151.91 270.907c5.51 0 10-4.489 10-10 0-5.51-4.49-10-10-10-5.511 0-10 4.49-10 10s4.489 10 10 10z"/></svg>